#!OML:ASF H:\Terrain\Walking\May29\JustinRory\Justin.ASF
:FULLY-SPECIFIED
:DEGREES
1761
root 6.57297 17.9637 6.5328 -175.348 5.02471 181.126
lowerback -0.444602 1.42221 -2.71536
upperback 1.14765 2.01918 -1.87972
thorax 1.40136 1.01825 -0.372171
lowerneck -13.9576 -4.33173 -13.9341
upperneck 17.5287 -2.62958 1.46229
head 8.01142 -1.86705 2.4795
rclavicle -3.27995e-015 3.10104e-014
rhumerus -33.9155 -25.8139 -72.5928
rradius 26.6604
rwrist -5.11032
rhand -11.3837 21.4685
rfingers 7.12502
rthumb 14.6508 -7.99391
lclavicle -3.27995e-015 3.10104e-014
lhumerus -35.5 23.2151 65.5407
lradius 29.0392
lwrist -10.3683
lhand 2.5839 38.7165
lfingers 7.12502
lthumb 28.0629 66.6376
rfemur -2.51829 1.35169 11.4095
rtibia 13.4325
rfoot -10.214 -11.2607
rtoes -5.80831
lfemur -8.39177 2.09388 -23.6362
ltibia 23.0619
lfoot -14.7446 -1.03734
ltoes -0.975468
1762
root 6.57353 17.959 6.53249 -175.453 5.03586 181.034
lowerback -0.500877 1.39676 -2.70872
upperback 1.27977 2.00031 -1.97214
thorax 1.5726 1.01016 -0.467053
lowerneck -14.2322 -4.35491 -13.9304
upperneck 18.06 -2.59122 1.50085
head 8.23755 -1.859 2.49708
rclavicle -2.96189e-014 -3.97569e-015
rhumerus -33.6452 -25.5637 -73.0109
rradius 27.0468
rwrist -5.32494
rhand -11.3109 21.7073
rfingers 7.12502
rthumb 14.721 -7.75006
lclavicle -2.96189e-014 -3.97569e-015
lhumerus -35.1614 23.166 65.5747
lradius 29.4556
lwrist -10.0446
lhand 2.75189 38.7345
lfingers 7.12502
lthumb 28.2234 66.6292
rfemur -2.34526 1.35596 11.2958
rtibia 13.2641
rfoot -10.1608 -11.2297
rtoes -5.72885
lfemur -8.32146 2.06868 -23.7561
ltibia 23.1725
lfoot -14.7602 -0.879009
ltoes -2.44994
1763
root 6.57356 17.9584 6.53351 -175.542 5.06518 180.971
lowerback -0.32648 1.36933 -2.6237
upperback 1.23195 1.96054 -2.09979
thorax 1.43338 0.995901 -0.651442
lowerneck -14.3821 -4.34595 -13.9284
upperneck 18.6959 -2.54079 1.64051
head 8.47808 -1.83652 2.55418
rclavicle -5.56597e-015 -3.65764e-014
rhumerus -33.6582 -25.0458 -73.4814
rradius 27.4935
rwrist -5.59794
rhand -11.4591 21.82
rfingers 7.12502
rthumb 14.5782 -7.64765
lclavicle -5.56597e-015 -3.65764e-014
lhumerus -35.082 22.7445 65.5448
lradius 29.915
lwrist -9.43492
lhand 2.47026 38.8528
lfingers 7.12502
lthumb 27.9542 66.7916
rfemur -2.21446 1.34395 11.226
rtibia 13.1542
rfoot -10.0851 -11.2324
rtoes -6.20589
lfemur -8.23494 2.08984 -23.8367
ltibia 23.2436
lfoot -14.8493 -0.78709
ltoes -4.3615
1764
root 6.57136 17.9666 6.53237 -175.548 5.01749 180.89
lowerback -0.258286 1.34322 -2.54678
upperback 1.14315 1.92484 -2.2309
thorax 1.31131 0.982953 -0.832399
lowerneck -14.1753 -4.27075 -13.9709
upperneck 19.0342 -2.48078 1.8722
head 8.55389 -1.79304 2.65377
rclavicle -1.5207e-014 -2.38542e-015
rhumerus -33.7996 -24.6494 -73.8432
rradius 28.0472
rwrist -5.81491
rhand -11.7213 21.6593
rfingers 7.12502
rthumb 14.3255 -7.82648
lclavicle -1.5207e-014 -2.38542e-015
lhumerus -35.043 22.2043 65.5355
lradius 30.2699
lwrist -8.80294
lhand 1.89661 38.6506
lfingers 7.12502
lthumb 27.4057 66.6775
rfemur -2.17684 1.26133 11.1301
rtibia 13.1493
rfoot -9.93079 -11.1846
rtoes -5.49436
lfemur -8.18108 1.98809 -23.93
ltibia 23.2628
lfoot -14.9734 -0.810776
ltoes -4.12206
1765
root 6.56832 17.97 6.5316 -175.558 4.95947 180.79
lowerback -0.297934 1.33526 -2.58362
upperback 1.16128 1.92035 -2.27319
thorax 1.35259 0.981385 -0.853866
lowerneck -14.0503 -4.20526 -14.0898
upperneck 19.1852 -2.39473 2.01282
head 8.57957 -1.74698 2.73484
rclavicle 1.86858e-014 -2.06736e-014
rhumerus -33.743 -24.3402 -74.0764
rradius 28.5722
rwrist -5.96125
rhand -11.8828 21.5447
rfingers 7.12502
rthumb 14.17 -7.95206
lclavicle 1.86858e-014 -2.06736e-014
lhumerus -34.7812 22.0285 65.6717
lradius 30.4877
lwrist -8.58166
lhand 1.56952 38.5321
lfingers 7.12502
lthumb 27.0928 66.6081
rfemur -2.11632 1.19156 10.9955
rtibia 13.0901
rfoot -9.80916 -11.11
rtoes -4.3931
lfemur -8.14311 1.82112 -24.0523
ltibia 23.292
lfoot -15.0216 -0.738987
ltoes -3.9652
1766
root 6.5722 17.9674 6.53556 -175.652 5.0238 180.753
lowerback -0.242755 1.38925 -2.67837
upperback 1.1712 1.99201 -2.26171
thorax 1.32809 1.01663 -0.789678
lowerneck -13.8884 -4.20815 -13.9987
upperneck 19.2954 -2.39304 1.87071
head 8.58629 -1.75121 2.67514
rclavicle -3.57812e-015 4.92986e-014
rhumerus -33.7792 -24.0935 -74.1946
rradius 29.0318
rwrist -6.29415
rhand -11.6856 21.8392
rfingers 7.12502
rthumb 14.36 -7.64412
lclavicle -3.57812e-015 4.92986e-014
lhumerus -34.5901 21.8509 65.8331
lradius 30.8577
lwrist -8.44867
lhand 1.5128 38.6321
lfingers 7.12502
lthumb 27.0386 66.7165
rfemur -2.03913 1.41959 10.979
rtibia 13.06
rfoot -9.83498 -11.2283
rtoes -4.28658
lfemur -8.05404 1.89703 -24.0661
ltibia 23.3001
lfoot -15.0255 -0.72869
ltoes -4.28374
1767
root 6.57636 17.9687 6.54055 -175.673 5.08206 180.749
lowerback -0.234197 1.41064 -2.74773
upperback 1.18235 2.022 -2.25803
thorax 1.33219 1.03108 -0.746905
lowerneck -13.9764 -4.25092 -13.8074
upperneck 19.5125 -2.42553 1.69842
head 8.67485 -1.77369 2.58298
rclavicle -1.07344e-014 2.62396e-014
rhumerus -33.75 -23.8871 -74.3639
rradius 29.5387
rwrist -6.89116
rhand -11.1923 21.789
rfingers 7.12502
rthumb 14.8352 -7.6599
lclavicle -1.07344e-014 2.62396e-014
lhumerus -34.4585 21.6462 65.9609
lradius 31.3795
lwrist -8.18495
lhand 1.53355 38.7033
lfingers 7.12502
lthumb 27.0584 66.7846
rfemur -2.1026 1.59895 11.0063
rtibia 13.1603
rfoot -9.82949 -11.3477
rtoes -4.69373
lfemur -8.03265 1.93656 -24.0538
ltibia 23.2621
lfoot -14.8296 -0.697523
ltoes -3.56337
1768
root 6.57692 17.9707 6.5458 -175.605 5.04006 180.812
lowerback -0.331527 1.35837 -2.70776
upperback 1.24592 1.95567 -2.20644
thorax 1.4519 0.995781 -0.713497
lowerneck -14.1887 -4.21588 -13.9412
upperneck 19.6197 -2.34739 1.85818
head 8.7471 -1.73567 2.66756
rclavicle -7.35503e-015 3.97569e-014
rhumerus -33.4888 -23.5186 -74.6257
rradius 30.0954
rwrist -7.51478
rhand -10.9612 21.5157
rfingers 7.12502
rthumb 15.0579 -7.91668
lclavicle -7.35503e-015 3.97569e-014
lhumerus -34.2831 21.6213 66.1278
lradius 31.8963
lwrist -8.00794
lhand 1.6664 38.8479
lfingers 7.12502
lthumb 27.1855 66.9095
rfemur -2.20195 1.46508 11.0825
rtibia 13.205
rfoot -9.90821 -11.3057
rtoes -5.71286
lfemur -8.12196 1.95568 -23.98
ltibia 23.2506
lfoot -14.7861 -0.765518
ltoes -3.32655
1769
root 6.57933 17.9691 6.54945 -175.649 5.0373 180.902
lowerback -0.328557 1.28954 -2.68498
upperback 1.24545 1.85402 -2.06442
thorax 1.44613 0.941209 -0.582285
lowerneck -14.1559 -4.14268 -14.5855
upperneck 19.7667 -2.22558 2.46839
head 8.79776 -1.66699 2.99847
rclavicle 2.3556e-014 3.10104e-014
rhumerus -33.3416 -22.8248 -74.8185
rradius 30.5393
rwrist -7.84414
rhand -11.2141 21.9877
rfingers 7.12502
rthumb 14.8142 -7.46279
lclavicle 2.3556e-014 3.10104e-014
lhumerus -34.394 21.6214 66.2859
lradius 32.4055
lwrist -7.76078
lhand 1.73348 38.7989
lfingers 7.12502
lthumb 27.2497 66.8504
rfemur -2.15417 1.37333 11.1997
rtibia 13.1927
rfoot -10.0438 -11.2851
rtoes -6.52436
lfemur -8.08871 2.10293 -23.8477
ltibia 23.2664
lfoot -15.1173 -0.962789
ltoes -4.3272
1770
root 6.58101 17.9702 6.54848 -175.732 5.06888 180.899
lowerback -0.388155 1.16958 -2.79802
upperback 1.23858 1.68845 -1.90653
thorax 1.46593 0.852976 -0.358554
lowerneck -13.9851 -4.03327 -15.2414
upperneck 19.8606 -2.06168 3.03268
head 8.79949 -1.58053 3.32243
rclavicle 1.98785e-015 7.15625e-015
rhumerus -33.177 -21.7583 -75.1124
rradius 30.9547
rwrist -8.15998
rhand -11.4139 22.1982
rfingers 7.12502
rthumb 14.6218 -7.26631
lclavicle 1.98785e-015 7.15625e-015
lhumerus -34.6343 21.6146 66.4367
lradius 32.9568
lwrist -7.27073
lhand 1.63963 38.5802
lfingers 7.12502
lthumb 27.1599 66.6457
rfemur -2.06211 1.4533 11.2048
rtibia 13.1758
rfoot -10.1071 -11.3369
rtoes -6.37891
lfemur -8.01537 2.20792 -23.8301
ltibia 23.3116
lfoot -15.1884 -1.11295
ltoes -3.98819
1771
root 6.58233 17.9715 6.55034 -175.72 5.14801 180.856
lowerback -0.548857 1.11029 -2.92323
upperback 1.29471 1.61733 -1.83728
thorax 1.60948 0.812915 -0.214461
lowerneck -13.6257 -3.97922 -15.195
upperneck 19.4069 -2.04317 2.85597
head 8.57524 -1.5726 3.25147
rclavicle -2.6339e-014 -2.14687e-014
rhumerus -32.9351 -21.1092 -75.3663
rradius 31.3876
rwrist -8.40168
rhand -11.2653 22.1346
rfingers 7.12502
rthumb 14.7649 -7.31953
lclavicle -2.6339e-014 -2.14687e-014
lhumerus -34.5237 21.4884 66.6436
lradius 33.3887
lwrist -6.92526
lhand 1.54208 38.3986
lfingers 7.12502
lthumb 27.0666 66.4787
rfemur -2.03135 1.57779 11.1465
rtibia 13.0433
rfoot -10.1104 -11.3281
rtoes -5.79618
lfemur -8.07749 2.17945 -23.891
ltibia 23.4189
lfoot -15.1089 -1.01208
ltoes -3.75845
1772
root 6.58209 17.9701 6.55677 -175.649 5.2179 180.988
lowerback -0.587946 1.14706 -2.79503
upperback 1.29016 1.66224 -1.79808
thorax 1.62813 0.835129 -0.244224
lowerneck -13.354 -4.01312 -14.9075
upperneck 18.97 -2.14937 2.49924
head 8.38009 -1.62543 3.0661
rclavicle -1.91827e-014 -1.66979e-014
rhumerus -32.8315 -21.0882 -75.4135
rradius 31.7145
rwrist -8.47318
rhand -11.1821 22.4984
rfingers 7.12502
rthumb 14.8451 -6.94982
lclavicle -1.91827e-014 -1.66979e-014
lhumerus -34.2973 21.1268 66.8646
lradius 33.7172
lwrist -6.68839
lhand 1.46974 38.3748
lfingers 7.12502
lthumb 26.9974 66.4656
rfemur -2.03352 1.53918 11.2673
rtibia 12.8196
rfoot -9.96742 -11.2193
rtoes -5.56827
lfemur -8.21874 2.00103 -23.7807
ltibia 23.5512
lfoot -15.1576 -0.689713
ltoes -4.31384
1773
root 6.57947 17.9716 6.56058 -175.59 5.21743 181.219
lowerback -0.578097 1.16223 -2.50288
upperback 1.2669 1.67131 -1.74988
thorax 1.60483 0.841198 -0.358331
lowerneck -13.4233 -4.01084 -14.9044
upperneck 18.8976 -2.13754 2.47151
head 8.36647 -1.62165 3.05577
rclavicle -1.49089e-014 -1.19271e-014
rhumerus -32.7272 -20.9009 -75.5442
rradius 32.0133
rwrist -8.81142
rhand -11.2749 22.9534
rfingers 7.12502
rthumb 14.7557 -6.50137
lclavicle -1.49089e-014 -1.19271e-014
lhumerus -34.1958 20.7284 67.036
lradius 34.1572
lwrist -6.33867
lhand 1.39892 38.3204
lfingers 7.12502
lthumb 26.9296 66.4217
rfemur -1.98503 1.45622 11.506
rtibia 12.5663
rfoot -9.79758 -11.1863
rtoes -5.76975
lfemur -8.36396 1.97231 -23.5417
ltibia 23.7053
lfoot -15.214 -0.656161
ltoes -3.76262
1774
root 6.57907 17.974 6.56145 -175.601 5.21536 181.299
lowerback -0.558522 1.15719 -2.41892
upperback 1.27272 1.66056 -1.71848
thorax 1.6012 0.835913 -0.373639
lowerneck -13.6124 -3.97444 -14.9777
upperneck 18.9909 -2.05017 2.53518
head 8.42576 -1.58273 3.09917
rclavicle -1.41137e-014 3.89618e-014
rhumerus -32.4901 -20.6193 -75.7374
rradius 32.2394
rwrist -9.04969
rhand -11.0035 23.085
rfingers 7.12502
rthumb 15.0172 -6.35042
lclavicle -1.41137e-014 3.89618e-014
lhumerus -34.1403 20.4745 67.1736
lradius 34.6141
lwrist -6.12703
lhand 1.36701 37.9528
lfingers 7.12502
lthumb 26.8991 66.0588
rfemur -1.83939 1.45895 11.5989
rtibia 12.2871
rfoot -9.653 -11.222
rtoes -6.04079
lfemur -8.45033 2.17182 -23.4448
ltibia 23.8811
lfoot -15.3095 -0.859978
ltoes -2.3495
1775
root 6.58 17.9768 6.56505 -175.565 5.10338 181.375
lowerback -0.505893 1.1408 -2.35922
upperback 1.20356 1.63073 -1.69342
thorax 1.50174 0.821559 -0.383955
lowerneck -13.7109 -3.91361 -15.0764
upperneck 19.2398 -1.97091 2.79571
head 8.52293 -1.53379 3.21702
rclavicle -7.15625e-015 2.62396e-014
rhumerus -32.3482 -20.366 -75.8945
rradius 32.4537
rwrist -9.34868
rhand -10.7683 22.9839
rfingers 7.12502
rthumb 15.2437 -6.43448
lclavicle -7.15625e-015 2.62396e-014
lhumerus -34.1772 20.1217 67.3176
lradius 35.0868
lwrist -5.95004
lhand 1.30026 37.6325
lfingers 7.12502
lthumb 26.8352 65.7484
rfemur -1.77894 1.39832 11.6949
rtibia 12.1217
rfoot -9.45382 -11.277
rtoes -5.7848
lfemur -8.55804 2.20251 -23.3554
ltibia 23.9857
lfoot -15.3125 -0.948988
ltoes -1.41339
